<svg width="26" height="26" viewBox="0 0 26 26" fill="none" xmlns="http://www.w3.org/2000/svg">
<path d="M6.2545 0C2.80023 0 0 2.8087 0 6.2734C0 9.7381 2.80023 12.5446 6.2545 12.5446C6.58227 12.5446 6.97834 12.5159 7.29098 12.4618L7.51336 12.9986L6.26023 16.0502C6.6746 16.0509 7.09592 16.1225 7.50779 16.2728C7.80001 16.3795 8.07045 16.5197 8.31645 16.6873L9.83078 12.9986L8.32518 9.30602C7.38323 9.9519 6.15522 10.1485 5.00121 9.72717C3.09948 9.03292 2.11896 6.9238 2.81112 5.01633C3.50329 3.10887 5.60607 2.12537 7.50778 2.81963C8.99763 3.36352 9.92205 4.77578 9.9198 6.27916L12.422 7.31282C12.4782 6.97457 12.509 6.62767 12.509 6.2734C12.509 2.8087 9.70876 0 6.2545 0Z" fill="white"/>
<path opacity="0.9" d="M19.6687 0C16.2144 0 13.4142 2.8087 13.4142 6.2734C13.4142 6.60216 13.4448 6.99913 13.499 7.31301L12.9619 7.53582L9.92002 6.27922C9.91939 6.69482 9.848 7.11738 9.69809 7.53048C9.59179 7.82342 9.45216 8.09453 9.28516 8.34116L12.9619 9.86025L16.6452 8.35032C16.0013 7.40552 15.8053 6.17382 16.2253 5.01633C16.9175 3.10885 19.0203 2.12536 20.922 2.81962C22.8237 3.51387 23.8042 5.623 23.1121 7.53046C22.5698 9.02481 21.1618 9.95203 19.663 9.94977L18.6318 12.4595C18.969 12.5159 19.3155 12.5468 19.6687 12.5468C23.123 12.5468 25.9232 9.73808 25.9232 6.2734C25.9232 2.8087 23.123 0 19.6687 0Z" fill="white"/>
<path opacity="0.5" d="M12.9617 16.1395L9.278 17.6496C9.92194 18.5944 10.1179 19.8261 9.69789 20.9836C9.00571 22.8911 6.90295 23.8746 5.00122 23.1803C3.09949 22.486 2.11896 20.3769 2.81113 18.4694C3.3534 16.9751 4.7614 16.0479 6.26025 16.0501L7.29079 13.5404C6.95356 13.484 6.60771 13.4524 6.2545 13.4524C2.80024 13.4524 0 16.2618 0 19.7265C0 23.1912 2.80024 25.9999 6.2545 25.9999C9.70876 25.9999 12.509 23.1912 12.509 19.7265C12.509 19.3978 12.4811 19.0193 12.4232 18.6869L12.9617 18.4641L16.0032 19.7208C16.0038 19.3052 16.0752 18.8826 16.2251 18.4694C16.3314 18.1765 16.4711 17.9054 16.6381 17.6588L12.9617 16.1395Z" fill="white"/>
<path opacity="0.7" d="M19.6686 13.4525C19.3408 13.4525 18.9485 13.4833 18.6317 13.5384L18.4099 12.9992L19.6628 9.94981C19.2484 9.94918 18.8271 9.87756 18.4153 9.72721C18.1231 9.62052 17.8526 9.48038 17.6066 9.31274L16.0924 12.9992L17.5979 16.694C18.5398 16.0481 19.7679 15.8516 20.9219 16.2729C22.8236 16.9671 23.8041 19.0762 23.1119 20.9837C22.4198 22.8912 20.317 23.8747 18.4153 23.1804C16.9254 22.6365 16.001 21.2242 16.0033 19.7209L13.5011 18.6872C13.4449 19.0255 13.4141 19.3724 13.4141 19.7266C13.4141 23.1913 16.2143 26 19.6686 26C23.1229 26 25.9231 23.1913 25.9231 19.7266C25.9231 16.2619 23.1229 13.4525 19.6686 13.4525Z" fill="white"/>
</svg>
